<svg width="20" height="20" viewBox="0 0 20 20" fill="none" xmlns="http://www.w3.org/2000/svg">
<path d="M6.3249 15.6292L9.9999 13.4126L13.6749 15.6584L12.7124 11.4584L15.9499 8.6584L11.6916 8.27923L9.9999 4.31257L8.30823 8.25007L4.0499 8.62923L7.2874 11.4584L6.3249 15.6292ZM9.9999 16.1542L5.15823 19.0709C4.94434 19.207 4.72073 19.2653 4.4874 19.2459C4.25406 19.2265 4.0499 19.1487 3.8749 19.0126C3.6999 18.8765 3.56378 18.7065 3.46656 18.5027C3.36934 18.299 3.3499 18.0703 3.40823 17.8167L4.69156 12.3042L0.404062 8.60007C0.209618 8.42507 0.0882844 8.22557 0.0400621 8.00157C-0.0081601 7.77757 0.00622872 7.55901 0.0832287 7.3459C0.160229 7.13279 0.276895 6.95779 0.433229 6.8209C0.589562 6.68401 0.803451 6.59651 1.0749 6.5584L6.73323 6.06257L8.92073 0.870899C9.01795 0.637565 9.16884 0.462565 9.3734 0.345898C9.57795 0.229232 9.78679 0.170898 9.9999 0.170898C10.213 0.170898 10.4218 0.229232 10.6264 0.345898C10.831 0.462565 10.9818 0.637565 11.0791 0.870899L13.2666 6.06257L18.9249 6.5584C19.1971 6.59729 19.411 6.68479 19.5666 6.8209C19.7221 6.95701 19.8388 7.13201 19.9166 7.3459C19.9943 7.55979 20.0091 7.77873 19.9609 8.00273C19.9127 8.22673 19.791 8.42584 19.5957 8.60007L15.3082 12.3042L16.5916 17.8167C16.6499 18.0695 16.6305 18.2982 16.5332 18.5027C16.436 18.7073 16.2999 18.8772 16.1249 19.0126C15.9499 19.1479 15.7457 19.2257 15.5124 19.2459C15.2791 19.2661 15.0555 19.2078 14.8416 19.0709L9.9999 16.1542Z" fill="#45B71B"/>
</svg>
