<svg width="21" height="20" viewBox="0 0 21 20" fill="none" xmlns="http://www.w3.org/2000/svg">
<path d="M6.8249 15.6292L10.4999 13.4126L14.1749 15.6584L13.2124 11.4584L16.4499 8.6584L12.1916 8.27923L10.4999 4.31257L8.80823 8.25007L4.5499 8.62923L7.7874 11.4584L6.8249 15.6292ZM10.4999 16.1542L5.65823 19.0709C5.44434 19.207 5.22073 19.2653 4.9874 19.2459C4.75406 19.2265 4.5499 19.1487 4.3749 19.0126C4.1999 18.8765 4.06378 18.7065 3.96656 18.5027C3.86934 18.299 3.8499 18.0703 3.90823 17.8167L5.19156 12.3042L0.904062 8.60007C0.709618 8.42507 0.588284 8.22557 0.540062 8.00157C0.49184 7.77757 0.506229 7.55901 0.583229 7.3459C0.660229 7.13279 0.776895 6.95779 0.933229 6.8209C1.08956 6.68401 1.30345 6.59651 1.5749 6.5584L7.23323 6.06257L9.42073 0.870899C9.51795 0.637565 9.66884 0.462565 9.8734 0.345898C10.078 0.229232 10.2868 0.170898 10.4999 0.170898C10.713 0.170898 10.9218 0.229232 11.1264 0.345898C11.331 0.462565 11.4818 0.637565 11.5791 0.870899L13.7666 6.06257L19.4249 6.5584C19.6971 6.59729 19.911 6.68479 20.0666 6.8209C20.2221 6.95701 20.3388 7.13201 20.4166 7.3459C20.4943 7.55979 20.5091 7.77873 20.4609 8.00273C20.4127 8.22673 20.291 8.42585 20.0957 8.60007L15.8082 12.3042L17.0916 17.8167C17.1499 18.0695 17.1305 18.2982 17.0332 18.5027C16.936 18.7073 16.7999 18.8772 16.6249 19.0126C16.4499 19.1479 16.2457 19.2257 16.0124 19.2459C15.7791 19.2661 15.5555 19.2078 15.3416 19.0709L10.4999 16.1542Z" fill="white"/>
</svg>
