<svg width="25" height="26" viewBox="0 0 25 26" fill="none" xmlns="http://www.w3.org/2000/svg">
<path d="M12.5 24.6666V13M11.3333 24.3516C11.688 24.5564 12.0904 24.6642 12.5 24.6642C12.9096 24.6642 13.312 24.5564 13.6667 24.3516L21.8333 19.685C22.1877 19.4804 22.482 19.1862 22.6868 18.8319C22.8916 18.4777 22.9996 18.0758 23 17.6666V8.3333C22.9996 7.92412 22.8916 7.52225 22.6868 7.16799C22.482 6.81373 22.1877 6.51956 21.8333 6.31497L13.6667 1.6483C13.312 1.44351 12.9096 1.33569 12.5 1.33569C12.0904 1.33569 11.688 1.44351 11.3333 1.6483L3.16667 6.31497C2.81231 6.51956 2.51798 6.81373 2.31321 7.16799C2.10843 7.52225 2.00042 7.92412 2 8.3333V17.6666C2.00042 18.0758 2.10843 18.4777 2.31321 18.8319C2.51798 19.1862 2.81231 19.4804 3.16667 19.685L11.3333 24.3516Z" stroke="#2E7D32" stroke-width="2.33333" stroke-linecap="round" stroke-linejoin="round"/>
<path d="M2.33838 7.16669L12.5 13L22.6617 7.16669M7.25005 3.98169L17.75 9.99002" stroke="#2E7D32" stroke-width="2.33333" stroke-linecap="round" stroke-linejoin="round"/>
</svg>
