<svg width="17" height="18" viewBox="0 0 17 18" fill="none" xmlns="http://www.w3.org/2000/svg">
<path d="M0.5 16V7C0.5 6.68333 0.571 6.38333 0.713 6.1C0.855 5.81667 1.05067 5.58333 1.3 5.4L7.3 0.9C7.65 0.633333 8.05 0.5 8.5 0.5C8.95 0.5 9.35 0.633333 9.7 0.9L15.7 5.4C15.95 5.58333 16.146 5.81667 16.288 6.1C16.43 6.38333 16.5007 6.68333 16.5 7V16C16.5 16.55 16.304 17.021 15.912 17.413C15.52 17.805 15.0493 18.0007 14.5 18H11.5C11.2167 18 10.9793 17.904 10.788 17.712C10.5967 17.52 10.5007 17.2827 10.5 17V12C10.5 11.7167 10.404 11.4793 10.212 11.288C10.02 11.0967 9.78267 11.0007 9.5 11H7.5C7.21667 11 6.97933 11.096 6.788 11.288C6.59667 11.48 6.50067 11.7173 6.5 12V17C6.5 17.2833 6.404 17.521 6.212 17.713C6.02 17.905 5.78267 18.0007 5.5 18H2.5C1.95 18 1.47933 17.8043 1.088 17.413C0.696666 17.0217 0.500667 16.5507 0.5 16Z" fill="white"/>
</svg>
