<svg width="17" height="18" viewBox="0 0 17 18" fill="none" xmlns="http://www.w3.org/2000/svg">
<path d="M0.333496 16V7C0.333496 6.68333 0.404496 6.38333 0.546496 6.1C0.688496 5.81667 0.884163 5.58333 1.1335 5.4L7.1335 0.9C7.4835 0.633333 7.8835 0.5 8.3335 0.5C8.7835 0.5 9.1835 0.633333 9.5335 0.9L15.5335 5.4C15.7835 5.58333 15.9795 5.81667 16.1215 6.1C16.2635 6.38333 16.3342 6.68333 16.3335 7V16C16.3335 16.55 16.1375 17.021 15.7455 17.413C15.3535 17.805 14.8828 18.0007 14.3335 18H11.3335C11.0502 18 10.8128 17.904 10.6215 17.712C10.4302 17.52 10.3342 17.2827 10.3335 17V12C10.3335 11.7167 10.2375 11.4793 10.0455 11.288C9.8535 11.0967 9.61616 11.0007 9.3335 11H7.3335C7.05016 11 6.81283 11.096 6.6215 11.288C6.43016 11.48 6.33416 11.7173 6.3335 12V17C6.3335 17.2833 6.2375 17.521 6.0455 17.713C5.8535 17.905 5.61616 18.0007 5.3335 18H2.3335C1.7835 18 1.31283 17.8043 0.921496 17.413C0.530163 17.0217 0.334163 16.5507 0.333496 16Z" fill="#45B71B"/>
</svg>
