<svg width="25" height="24" viewBox="0 0 25 24" fill="none" xmlns="http://www.w3.org/2000/svg">
<path fill-rule="evenodd" clip-rule="evenodd" d="M16.8337 8.74984C16.8337 9.89911 16.3771 11.0013 15.5645 11.814C14.7518 12.6266 13.6496 13.0832 12.5003 13.0832C11.3511 13.0832 10.2489 12.6266 9.4362 11.814C8.62354 11.0013 8.16699 9.89911 8.16699 8.74984C8.16699 7.60057 8.62354 6.49837 9.4362 5.68571C10.2489 4.87305 11.3511 4.4165 12.5003 4.4165C13.6496 4.4165 14.7518 4.87305 15.5645 5.68571C16.3771 6.49837 16.8337 7.60057 16.8337 8.74984ZM14.667 8.74984C14.667 9.32447 14.4387 9.87557 14.0324 10.2819C13.6261 10.6882 13.075 10.9165 12.5003 10.9165C11.9257 10.9165 11.3746 10.6882 10.9683 10.2819C10.5619 9.87557 10.3337 9.32447 10.3337 8.74984C10.3337 8.1752 10.5619 7.6241 10.9683 7.21777C11.3746 6.81144 11.9257 6.58317 12.5003 6.58317C13.075 6.58317 13.6261 6.81144 14.0324 7.21777C14.4387 7.6241 14.667 8.1752 14.667 8.74984Z" fill="white"/>
<path fill-rule="evenodd" clip-rule="evenodd" d="M12.5002 0.083252C5.91891 0.083252 0.583496 5.41867 0.583496 11.9999C0.583496 18.5812 5.91891 23.9166 12.5002 23.9166C19.0814 23.9166 24.4168 18.5812 24.4168 11.9999C24.4168 5.41867 19.0814 0.083252 12.5002 0.083252ZM2.75016 11.9999C2.75016 14.2641 3.52258 16.3484 4.81716 18.0038C5.72656 16.8101 6.8995 15.8427 8.24444 15.177C9.58938 14.5114 11.0699 14.1656 12.5706 14.1666C14.0519 14.1649 15.5141 14.5014 16.8456 15.1507C18.177 15.7999 19.3427 16.7446 20.2536 17.9128C21.1922 16.6817 21.8242 15.2447 22.0973 13.7209C22.3704 12.197 22.2766 10.6301 21.8239 9.14965C21.3711 7.66922 20.5723 6.31789 19.4936 5.20746C18.4149 4.09703 17.0873 3.25943 15.6206 2.76397C14.1539 2.26851 12.5903 2.12942 11.0592 2.35822C9.52806 2.58702 8.07344 3.17713 6.81566 4.07973C5.55789 4.98232 4.53312 6.17145 3.82616 7.54871C3.1192 8.92598 2.75036 10.4518 2.75016 11.9999ZM12.5002 21.7499C10.2619 21.7535 8.09115 20.9835 6.3555 19.5703C7.05404 18.5699 7.98396 17.7532 9.06608 17.1896C10.1482 16.626 11.3505 16.3322 12.5706 16.3333C13.7754 16.3322 14.9632 16.6187 16.0351 17.1688C17.107 17.719 18.0321 18.517 18.7337 19.4966C16.9846 20.9558 14.778 21.7535 12.5002 21.7499Z" fill="white"/>
</svg>
