<svg width="21" height="23" viewBox="0 0 21 23" fill="none" xmlns="http://www.w3.org/2000/svg">
<path fill-rule="evenodd" clip-rule="evenodd" d="M16.0834 0.25C16.6301 0.249827 17.1565 0.456274 17.5574 0.827955C17.9582 1.19964 18.2037 1.70908 18.2447 2.25417L18.2501 2.41667V17.5833H19.3334C19.6096 17.5836 19.8751 17.6894 20.0759 17.8789C20.2767 18.0685 20.3975 18.3275 20.4137 18.6032C20.4299 18.8788 20.3402 19.1502 20.163 19.362C19.9858 19.5737 19.7344 19.7098 19.4602 19.7424L19.3334 19.75H2.0001C1.72398 19.7497 1.4584 19.644 1.25762 19.4544C1.05684 19.2649 0.936014 19.0058 0.919832 18.7302C0.90365 18.4545 0.993333 18.1831 1.17056 17.9713C1.34778 17.7596 1.59916 17.6235 1.87335 17.5909L2.0001 17.5833H3.08344V2.41667C3.08326 1.87004 3.28971 1.34355 3.66139 0.94274C4.03307 0.541927 4.54252 0.296414 5.0876 0.255417L5.2501 0.25H16.0834ZM13.3751 8.91667C13.1617 8.91667 12.9504 8.9587 12.7532 9.04036C12.5561 9.12203 12.3769 9.24172 12.2261 9.39262C12.0752 9.54351 11.9555 9.72265 11.8738 9.91981C11.7921 10.117 11.7501 10.3283 11.7501 10.5417C11.7501 10.7551 11.7921 10.9664 11.8738 11.1635C11.9555 11.3607 12.0752 11.5398 12.2261 11.6907C12.3769 11.8416 12.5561 11.9613 12.7532 12.043C12.9504 12.1246 13.1617 12.1667 13.3751 12.1667C13.8061 12.1667 14.2194 11.9955 14.5242 11.6907C14.8289 11.386 15.0001 10.9726 15.0001 10.5417C15.0001 10.1107 14.8289 9.69736 14.5242 9.39262C14.2194 9.08787 13.8061 8.91667 13.3751 8.91667Z" fill="#45B71B"/>
</svg>
