<svg width="21" height="20" viewBox="0 0 21 20" fill="none" xmlns="http://www.w3.org/2000/svg">
<path fill-rule="evenodd" clip-rule="evenodd" d="M15.9164 0.25C16.4631 0.249827 16.9896 0.456274 17.3904 0.827955C17.7912 1.19964 18.0367 1.70908 18.0777 2.25417L18.0831 2.41667V17.5833H19.1664C19.4426 17.5836 19.7081 17.6894 19.9089 17.8789C20.1097 18.0685 20.2305 18.3275 20.2467 18.6032C20.2629 18.8788 20.1732 19.1502 19.996 19.362C19.8188 19.5737 19.5674 19.7098 19.2932 19.7424L19.1664 19.75H1.83311C1.55699 19.7497 1.29141 19.644 1.09063 19.4544C0.889847 19.2649 0.769022 19.0058 0.75284 18.7302C0.736658 18.4545 0.826341 18.1831 1.00356 17.9713C1.18079 17.7596 1.43217 17.6235 1.70636 17.5909L1.83311 17.5833H2.91644V2.41667C2.91627 1.87004 3.12272 1.34355 3.4944 0.94274C3.86608 0.541927 4.37552 0.296414 4.92061 0.255417L5.08311 0.25H15.9164ZM13.2081 8.91667C12.9947 8.91667 12.7834 8.9587 12.5862 9.04036C12.3891 9.12203 12.21 9.24172 12.0591 9.39262C11.9082 9.54351 11.7885 9.72265 11.7068 9.91981C11.6251 10.117 11.5831 10.3283 11.5831 10.5417C11.5831 10.7551 11.6251 10.9664 11.7068 11.1635C11.7885 11.3607 11.9082 11.5398 12.0591 11.6907C12.21 11.8416 12.3891 11.9613 12.5862 12.043C12.7834 12.1246 12.9947 12.1667 13.2081 12.1667C13.6391 12.1667 14.0524 11.9955 14.3572 11.6907C14.6619 11.386 14.8331 10.9726 14.8331 10.5417C14.8331 10.1107 14.6619 9.69736 14.3572 9.39262C14.0524 9.08787 13.6391 8.91667 13.2081 8.91667Z" fill="white"/>
</svg>
